<svg width="28" height="28" viewBox="0 0 28 28" fill="none" xmlns="http://www.w3.org/2000/svg">
<g>
<path d="M17.21 8.73999H2.43005C1.24816 8.73999 0.290039 9.6981 0.290039 10.88V25.66C0.290039 26.8419 1.24816 27.8 2.43005 27.8H17.21C18.3919 27.8 19.35 26.8419 19.35 25.66V10.88C19.35 9.6981 18.3919 8.73999 17.21 8.73999Z" fill="#7873FF"/>
<path d="M19.3504 10.89V19.89H10.3504C9.78987 19.8692 9.25989 19.629 8.87461 19.2213C8.48933 18.8136 8.27957 18.2709 8.29044 17.71V8.71002H17.2904C17.851 8.73089 18.381 8.97103 18.7663 9.37875C19.1515 9.78647 19.3613 10.3292 19.3504 10.89Z" fill="#0C0C0C"/>
<path d="M25.6505 0.300018H10.8705C9.68859 0.300018 8.73047 1.25813 8.73047 2.44002V17.22C8.73047 18.4019 9.68859 19.36 10.8705 19.36H25.6505C26.8323 19.36 27.7905 18.4019 27.7905 17.22V2.44002C27.7905 1.25813 26.8323 0.300018 25.6505 0.300018Z" fill="white"/>
</g>
</svg>
