<svg width="23" height="24" viewBox="0 0 23 24" fill="none" xmlns="http://www.w3.org/2000/svg">
<path d="M15.9211 0.786194C14.6071 0.786192 13.3191 1.15086 12.2011 1.83935C11.0831 2.52784 10.1793 3.51301 9.59083 4.68461C9.00237 5.8562 8.75248 7.16795 8.8691 8.47313C8.98571 9.7783 9.46423 11.0254 10.2511 12.0748L0.571196 21.7378C0.477468 21.8305 0.403063 21.9408 0.352295 22.0623C0.301526 22.1839 0.275391 22.3142 0.275391 22.4459C0.275391 22.5775 0.301526 22.7079 0.352295 22.8294C0.403063 22.9509 0.477468 23.0612 0.571196 23.1539C0.664159 23.2474 0.774745 23.3216 0.896603 23.3722C1.01846 23.4228 1.14917 23.4489 1.28118 23.4489C1.4132 23.4489 1.54391 23.4228 1.66576 23.3722C1.78762 23.3216 1.89824 23.2474 1.9912 23.1539L11.6811 13.4908C12.5782 14.1571 13.621 14.6017 14.7238 14.7879C15.8267 14.9742 16.9581 14.8968 18.0251 14.5622C19.0922 14.2276 20.0644 13.6453 20.8619 12.8631C21.6593 12.081 22.2593 11.1213 22.6126 10.0629C22.9658 9.00453 23.0621 7.87768 22.8937 6.77494C22.7253 5.67221 22.2969 4.62507 21.6438 3.71955C20.9906 2.81403 20.1313 2.07597 19.1364 1.56603C18.1416 1.0561 17.0397 0.788838 15.9211 0.786194ZM20.0711 11.985C19.5268 12.5295 18.88 12.9613 18.1678 13.2557C17.4556 13.5501 16.6921 13.7011 15.9211 13.7002C15.135 13.6984 14.357 13.5425 13.6311 13.2415C13.249 13.0743 12.8839 12.8706 12.5411 12.6332C11.9914 12.2441 11.5113 11.7654 11.1211 11.2171C10.8773 10.8754 10.6727 10.5075 10.5111 10.1202C10.2075 9.40043 10.0511 8.62742 10.0511 7.84654C10.0511 7.06567 10.2075 6.29263 10.5111 5.57285C10.8077 4.8766 11.2354 4.24356 11.7712 3.70805C12.3141 3.16177 12.9607 2.72877 13.6732 2.43428C14.3857 2.1398 15.1499 1.98972 15.9211 1.99282C17.0778 1.99701 18.2074 2.34189 19.1682 2.98414C20.129 3.62639 20.8781 4.5374 21.3215 5.60276C21.7648 6.66813 21.8827 7.84035 21.6602 8.97229C21.4377 10.1042 20.8849 11.1454 20.0711 11.965V11.985Z" fill="white"/>
</svg>
